<svg xmlns="http://www.w3.org/2000/svg" viewBox="0 0 65.7 65.7"><defs><style>.cls-1{fill:red;}</style></defs><title>Recurso 2</title><g id="Capa_2" data-name="Capa 2"><g id="Capa_1-2" data-name="Capa 1"><rect class="cls-1" x="3.21" y="3.21" width="15.49" height="15.49" transform="translate(10.95 -4.54) rotate(45)"/><rect class="cls-1" x="25.11" y="3.21" width="15.49" height="15.49" transform="translate(17.36 -20.02) rotate(45)"/><rect class="cls-1" x="47.01" y="3.21" width="15.49" height="15.49" transform="translate(23.78 -35.51) rotate(45)"/><rect class="cls-1" x="3.21" y="25.11" width="15.49" height="15.49" transform="translate(26.44 1.88) rotate(45)"/><rect class="cls-1" x="25.11" y="25.11" width="15.49" height="15.49" transform="translate(32.85 -13.61) rotate(45)"/><rect class="cls-1" x="47.01" y="25.11" width="15.49" height="15.49" transform="translate(39.26 -29.09) rotate(45)"/><rect class="cls-1" x="3.21" y="47.01" width="15.49" height="15.49" transform="translate(41.92 8.29) rotate(45)"/><rect class="cls-1" x="25.11" y="47.01" width="15.49" height="15.49" transform="translate(48.34 -7.19) rotate(45)"/><rect class="cls-1" x="47.01" y="47.01" width="15.49" height="15.49" transform="translate(54.75 -22.68) rotate(45)"/></g></g></svg>